%TF.GenerationSoftware,KiCad,Pcbnew,8.0.4*%
%TF.CreationDate,2024-10-12T11:12:09+09:00*%
%TF.ProjectId,XIAO_ButtonBatteryPCB,5849414f-5f42-4757-9474-6f6e42617474,rev?*%
%TF.SameCoordinates,Original*%
%TF.FileFunction,Copper,L2,Bot*%
%TF.FilePolarity,Positive*%
%FSLAX46Y46*%
G04 Gerber Fmt 4.6, Leading zero omitted, Abs format (unit mm)*
G04 Created by KiCad (PCBNEW 8.0.4) date 2024-10-12 11:12:09*
%MOMM*%
%LPD*%
G01*
G04 APERTURE LIST*
G04 Aperture macros list*
%AMRoundRect*
0 Rectangle with rounded corners*
0 $1 Rounding radius*
0 $2 $3 $4 $5 $6 $7 $8 $9 X,Y pos of 4 corners*
0 Add a 4 corners polygon primitive as box body*
4,1,4,$2,$3,$4,$5,$6,$7,$8,$9,$2,$3,0*
0 Add four circle primitives for the rounded corners*
1,1,$1+$1,$2,$3*
1,1,$1+$1,$4,$5*
1,1,$1+$1,$6,$7*
1,1,$1+$1,$8,$9*
0 Add four rect primitives between the rounded corners*
20,1,$1+$1,$2,$3,$4,$5,0*
20,1,$1+$1,$4,$5,$6,$7,0*
20,1,$1+$1,$6,$7,$8,$9,0*
20,1,$1+$1,$8,$9,$2,$3,0*%
G04 Aperture macros list end*
%TA.AperFunction,SMDPad,CuDef*%
%ADD10R,0.850000X1.200000*%
%TD*%
%TA.AperFunction,SMDPad,CuDef*%
%ADD11RoundRect,0.625000X1.125000X-0.625000X1.125000X0.625000X-1.125000X0.625000X-1.125000X-0.625000X0*%
%TD*%
%TA.AperFunction,ComponentPad*%
%ADD12C,1.500000*%
%TD*%
%TA.AperFunction,ComponentPad*%
%ADD13R,1.500000X1.500000*%
%TD*%
%TA.AperFunction,ComponentPad*%
%ADD14C,1.600000*%
%TD*%
%TA.AperFunction,SMDPad,CuDef*%
%ADD15RoundRect,0.625000X-1.125000X0.625000X-1.125000X-0.625000X1.125000X-0.625000X1.125000X0.625000X0*%
%TD*%
%TA.AperFunction,ComponentPad*%
%ADD16R,1.308000X1.308000*%
%TD*%
%TA.AperFunction,ComponentPad*%
%ADD17C,1.308000*%
%TD*%
%TA.AperFunction,ComponentPad*%
%ADD18C,3.000000*%
%TD*%
%TA.AperFunction,ComponentPad*%
%ADD19R,3.000000X3.000000*%
%TD*%
%TA.AperFunction,ViaPad*%
%ADD20C,0.600000*%
%TD*%
%TA.AperFunction,Conductor*%
%ADD21C,0.200000*%
%TD*%
%TA.AperFunction,Conductor*%
%ADD22C,0.300000*%
%TD*%
G04 APERTURE END LIST*
D10*
%TO.P,D1,1,K*%
%TO.N,Net-(D1-K)*%
X166612500Y-100100000D03*
%TO.P,D1,2,A*%
%TO.N,Net-(D1-A)*%
X169662500Y-100100000D03*
%TD*%
D11*
%TO.P,C3,4*%
%TO.N,N/C*%
X162600000Y-92900000D03*
X162600000Y-68900000D03*
D12*
%TO.P,C3,2*%
%TO.N,GND*%
X162600000Y-68900000D03*
%TO.P,C3,1*%
%TO.N,Net-(D1-K)*%
X162600000Y-92900000D03*
%TD*%
D13*
%TO.P,SW1,1,B*%
%TO.N,Net-(SW1-B)*%
X157160000Y-100000000D03*
D14*
%TO.P,SW1,2,C*%
%TO.N,Net-(D1-A)*%
X154620000Y-100000000D03*
%TO.P,SW1,3,A*%
%TO.N,Net-(D1-K)*%
X159700000Y-100000000D03*
%TD*%
D12*
%TO.P,U1,27,Vbat-*%
%TO.N,GND*%
X164414000Y-85820000D03*
%TO.P,U1,26,Vbat+*%
%TO.N,Net-(SW1-B)*%
X161814000Y-85820000D03*
%TO.P,U1,25,BOOT*%
%TO.N,unconnected-(U1-BOOT-Pad25)*%
X163824000Y-79270001D03*
%TO.P,U1,24,3V3*%
%TO.N,unconnected-(U1-3V3-Pad24)*%
X161289000Y-79270000D03*
%TO.P,U1,23,MTDI*%
%TO.N,unconnected-(U1-MTDI-Pad23)*%
X163834000Y-71600000D03*
%TO.P,U1,22,EN*%
%TO.N,unconnected-(U1-EN-Pad22)*%
X163834000Y-74180000D03*
%TO.P,U1,21,MTMS*%
%TO.N,unconnected-(U1-MTMS-Pad21)*%
X163834000Y-76720000D03*
%TO.P,U1,20,MTCK*%
%TO.N,unconnected-(U1-MTCK-Pad20)*%
X161294000Y-76720000D03*
%TO.P,U1,19,GND*%
%TO.N,unconnected-(U1-GND-Pad19)*%
X161294000Y-74180000D03*
%TO.P,U1,18,MTDO*%
%TO.N,unconnected-(U1-MTDO-Pad18)*%
X161294000Y-71600000D03*
%TO.P,U1,17,Vbat+*%
%TO.N,Net-(SW1-B)*%
X158064000Y-79820000D03*
%TO.P,U1,16,Vbat-*%
%TO.N,GND*%
X158064000Y-77920000D03*
%TO.P,U1,15,GND*%
X164664000Y-81720000D03*
D14*
%TO.P,U1,14,5V*%
%TO.N,/Vcc5v*%
X170184000Y-72600000D03*
%TO.P,U1,13,GND*%
%TO.N,GND*%
X170184000Y-75140000D03*
%TO.P,U1,12,3V3*%
%TO.N,unconnected-(U1-3V3-Pad12)*%
X170184000Y-77680000D03*
%TO.P,U1,11,PA6_A10_D10_MOSI*%
%TO.N,unconnected-(U1-PA6_A10_D10_MOSI-Pad11)*%
X170184000Y-80220000D03*
%TO.P,U1,10,PA5_A9_D9_MISO*%
%TO.N,unconnected-(U1-PA5_A9_D9_MISO-Pad10)*%
X170184000Y-82760000D03*
%TO.P,U1,9,PA7_A8_D8_SCK*%
%TO.N,unconnected-(U1-PA7_A8_D8_SCK-Pad9)*%
X170184000Y-85300000D03*
%TO.P,U1,8,PB09_A7_D7_RX*%
%TO.N,unconnected-(U1-PB09_A7_D7_RX-Pad8)*%
X170214000Y-87840000D03*
%TO.P,U1,7,PB08_A6_D6_TX*%
%TO.N,unconnected-(U1-PB08_A6_D6_TX-Pad7)*%
X154934000Y-87840000D03*
%TO.P,U1,6,PA9_A5_D5_SCL*%
%TO.N,/SCL*%
X154944000Y-85300000D03*
%TO.P,U1,5,PA8_A4_D4_SDA*%
%TO.N,/SDA*%
X154944000Y-82760000D03*
%TO.P,U1,4,PA11_A3_D3*%
%TO.N,unconnected-(U1-PA11_A3_D3-Pad4)*%
X154944000Y-80220000D03*
%TO.P,U1,3,PA10_A2_D2*%
%TO.N,unconnected-(U1-PA10_A2_D2-Pad3)*%
X154944000Y-77680000D03*
%TO.P,U1,2,PA4_A1_D1*%
%TO.N,unconnected-(U1-PA4_A1_D1-Pad2)*%
X154944000Y-75140000D03*
%TO.P,U1,1,PA02_A0_D0*%
%TO.N,unconnected-(U1-PA02_A0_D0-Pad1)*%
X154944000Y-72600000D03*
%TD*%
D15*
%TO.P,C4,4*%
%TO.N,N/C*%
X162600000Y-99900000D03*
D11*
%TO.P,C4,3*%
X162600000Y-68900000D03*
D12*
%TO.P,C4,2*%
%TO.N,GND*%
X162600000Y-68900000D03*
%TO.P,C4,1*%
%TO.N,Net-(D1-K)*%
X162600000Y-99900000D03*
%TD*%
D16*
%TO.P,J2,1,GND*%
%TO.N,GND*%
X159700000Y-93200000D03*
D17*
%TO.P,J2,2,Vcc*%
%TO.N,/Vcc5v*%
X157700000Y-93200000D03*
%TO.P,J2,3,SDA*%
%TO.N,/SDA*%
X155700000Y-93200000D03*
%TO.P,J2,4,SCL*%
%TO.N,/SCL*%
X153700000Y-93200000D03*
%TD*%
D12*
%TO.P,C2,2*%
%TO.N,Net-(C1-Pad2)*%
X10850000Y-1314999D03*
%TO.P,C2,1*%
%TO.N,Net-(D1-K)*%
X10850000Y-21314999D03*
%TD*%
D18*
%TO.P,C1,2*%
%TO.N,Net-(C1-Pad2)*%
X47600000Y-12050000D03*
D19*
%TO.P,C1,1*%
%TO.N,Net-(D1-K)*%
X24110000Y-12050000D03*
%TD*%
D16*
%TO.P,J1,1,GND*%
%TO.N,GND*%
X165500000Y-93100000D03*
D17*
%TO.P,J1,2,Vcc*%
%TO.N,/Vcc5v*%
X167500000Y-93100000D03*
%TO.P,J1,3,SDA*%
%TO.N,/SDA*%
X169500000Y-93100000D03*
%TO.P,J1,4,SCL*%
%TO.N,/SCL*%
X171500000Y-93100000D03*
%TD*%
D20*
%TO.N,Net-(D1-A)*%
X152100000Y-100800000D03*
%TO.N,Net-(D1-K)*%
X165200000Y-100900000D03*
%TO.N,Net-(D1-A)*%
X168700000Y-100600000D03*
%TO.N,Net-(SW1-B)*%
X161100000Y-95200000D03*
%TO.N,GND*%
X152400000Y-95500000D03*
X153900000Y-68800000D03*
X173100000Y-76100000D03*
X159700000Y-94900000D03*
X168600000Y-68800000D03*
X172900000Y-95000000D03*
X173160000Y-100600000D03*
X152300000Y-81400000D03*
X165200000Y-72900000D03*
X170600000Y-89600000D03*
X152300000Y-89900000D03*
X159000000Y-85900000D03*
X173000000Y-89900000D03*
X173150000Y-84000000D03*
X164600000Y-95000000D03*
X152310000Y-73850000D03*
X156700000Y-81500000D03*
X152300000Y-70800000D03*
X172900000Y-68800000D03*
X165600000Y-69800000D03*
X159300000Y-68800000D03*
X165300000Y-77900000D03*
%TD*%
D21*
%TO.N,Net-(D1-A)*%
X168700000Y-100600000D02*
X169200000Y-100100000D01*
X169200000Y-100100000D02*
X169662500Y-100100000D01*
%TO.N,Net-(D1-K)*%
X166612500Y-100100000D02*
X162800000Y-100100000D01*
X162800000Y-100100000D02*
X162600000Y-99900000D01*
D22*
%TO.N,Net-(SW1-B)*%
X160900000Y-97900000D02*
X157000000Y-97900000D01*
X157000000Y-97900000D02*
X156560000Y-98340000D01*
X161100000Y-95200000D02*
X161100000Y-97700000D01*
X161127079Y-95227079D02*
X161100000Y-95200000D01*
X161100000Y-97700000D02*
X160900000Y-97900000D01*
X156560000Y-98340000D02*
X156560000Y-99700000D01*
%TO.N,Net-(D1-K)*%
X162400000Y-99700000D02*
X162600000Y-99900000D01*
X159100000Y-99700000D02*
X162400000Y-99700000D01*
X162600000Y-99900000D02*
X162600000Y-92900000D01*
%TD*%
M02*
