%TF.GenerationSoftware,KiCad,Pcbnew,8.0.4*%
%TF.CreationDate,2024-10-12T11:12:09+09:00*%
%TF.ProjectId,XIAO_ButtonBatteryPCB,5849414f-5f42-4757-9474-6f6e42617474,rev?*%
%TF.SameCoordinates,Original*%
%TF.FileFunction,Legend,Bot*%
%TF.FilePolarity,Positive*%
%FSLAX46Y46*%
G04 Gerber Fmt 4.6, Leading zero omitted, Abs format (unit mm)*
G04 Created by KiCad (PCBNEW 8.0.4) date 2024-10-12 11:12:09*
%MOMM*%
%LPD*%
G01*
G04 APERTURE LIST*
G04 Aperture macros list*
%AMRoundRect*
0 Rectangle with rounded corners*
0 $1 Rounding radius*
0 $2 $3 $4 $5 $6 $7 $8 $9 X,Y pos of 4 corners*
0 Add a 4 corners polygon primitive as box body*
4,1,4,$2,$3,$4,$5,$6,$7,$8,$9,$2,$3,0*
0 Add four circle primitives for the rounded corners*
1,1,$1+$1,$2,$3*
1,1,$1+$1,$4,$5*
1,1,$1+$1,$6,$7*
1,1,$1+$1,$8,$9*
0 Add four rect primitives between the rounded corners*
20,1,$1+$1,$2,$3,$4,$5,0*
20,1,$1+$1,$4,$5,$6,$7,0*
20,1,$1+$1,$6,$7,$8,$9,0*
20,1,$1+$1,$8,$9,$2,$3,0*%
G04 Aperture macros list end*
%ADD10C,0.100000*%
%ADD11C,0.150000*%
%ADD12C,0.127000*%
%ADD13C,0.200000*%
%ADD14R,0.850000X1.200000*%
%ADD15RoundRect,0.625000X1.125000X-0.625000X1.125000X0.625000X-1.125000X0.625000X-1.125000X-0.625000X0*%
%ADD16C,1.500000*%
%ADD17R,1.500000X1.500000*%
%ADD18C,1.600000*%
%ADD19RoundRect,0.625000X-1.125000X0.625000X-1.125000X-0.625000X1.125000X-0.625000X1.125000X0.625000X0*%
%ADD20R,1.308000X1.308000*%
%ADD21C,1.308000*%
%ADD22C,3.000000*%
%ADD23R,3.000000X3.000000*%
G04 APERTURE END LIST*
D10*
X168738972Y-100145847D02*
X168738972Y-99745847D01*
X168738972Y-99745847D02*
X168643734Y-99745847D01*
X168643734Y-99745847D02*
X168586591Y-99764895D01*
X168586591Y-99764895D02*
X168548496Y-99802990D01*
X168548496Y-99802990D02*
X168529449Y-99841085D01*
X168529449Y-99841085D02*
X168510401Y-99917276D01*
X168510401Y-99917276D02*
X168510401Y-99974419D01*
X168510401Y-99974419D02*
X168529449Y-100050609D01*
X168529449Y-100050609D02*
X168548496Y-100088704D01*
X168548496Y-100088704D02*
X168586591Y-100126800D01*
X168586591Y-100126800D02*
X168643734Y-100145847D01*
X168643734Y-100145847D02*
X168738972Y-100145847D01*
X168338972Y-100145847D02*
X168338972Y-99879180D01*
X168338972Y-99745847D02*
X168358020Y-99764895D01*
X168358020Y-99764895D02*
X168338972Y-99783942D01*
X168338972Y-99783942D02*
X168319925Y-99764895D01*
X168319925Y-99764895D02*
X168338972Y-99745847D01*
X168338972Y-99745847D02*
X168338972Y-99783942D01*
X168091354Y-100145847D02*
X168129449Y-100126800D01*
X168129449Y-100126800D02*
X168148496Y-100107752D01*
X168148496Y-100107752D02*
X168167544Y-100069657D01*
X168167544Y-100069657D02*
X168167544Y-99955371D01*
X168167544Y-99955371D02*
X168148496Y-99917276D01*
X168148496Y-99917276D02*
X168129449Y-99898228D01*
X168129449Y-99898228D02*
X168091354Y-99879180D01*
X168091354Y-99879180D02*
X168034211Y-99879180D01*
X168034211Y-99879180D02*
X167996115Y-99898228D01*
X167996115Y-99898228D02*
X167977068Y-99917276D01*
X167977068Y-99917276D02*
X167958020Y-99955371D01*
X167958020Y-99955371D02*
X167958020Y-100069657D01*
X167958020Y-100069657D02*
X167977068Y-100107752D01*
X167977068Y-100107752D02*
X167996115Y-100126800D01*
X167996115Y-100126800D02*
X168034211Y-100145847D01*
X168034211Y-100145847D02*
X168091354Y-100145847D01*
X167615163Y-100145847D02*
X167615163Y-99745847D01*
X167615163Y-100126800D02*
X167653258Y-100145847D01*
X167653258Y-100145847D02*
X167729449Y-100145847D01*
X167729449Y-100145847D02*
X167767544Y-100126800D01*
X167767544Y-100126800D02*
X167786591Y-100107752D01*
X167786591Y-100107752D02*
X167805639Y-100069657D01*
X167805639Y-100069657D02*
X167805639Y-99955371D01*
X167805639Y-99955371D02*
X167786591Y-99917276D01*
X167786591Y-99917276D02*
X167767544Y-99898228D01*
X167767544Y-99898228D02*
X167729449Y-99879180D01*
X167729449Y-99879180D02*
X167653258Y-99879180D01*
X167653258Y-99879180D02*
X167615163Y-99898228D01*
X167272305Y-100126800D02*
X167310401Y-100145847D01*
X167310401Y-100145847D02*
X167386591Y-100145847D01*
X167386591Y-100145847D02*
X167424686Y-100126800D01*
X167424686Y-100126800D02*
X167443734Y-100088704D01*
X167443734Y-100088704D02*
X167443734Y-99936323D01*
X167443734Y-99936323D02*
X167424686Y-99898228D01*
X167424686Y-99898228D02*
X167386591Y-99879180D01*
X167386591Y-99879180D02*
X167310401Y-99879180D01*
X167310401Y-99879180D02*
X167272305Y-99898228D01*
X167272305Y-99898228D02*
X167253258Y-99936323D01*
X167253258Y-99936323D02*
X167253258Y-99974419D01*
X167253258Y-99974419D02*
X167443734Y-100012514D01*
X155734211Y-70309133D02*
X156067544Y-70309133D01*
X156067544Y-70309133D02*
X156067544Y-69609133D01*
X155500877Y-70309133D02*
X155500877Y-69609133D01*
X154767544Y-70309133D02*
X155000877Y-69975800D01*
X155167544Y-70309133D02*
X155167544Y-69609133D01*
X155167544Y-69609133D02*
X154900877Y-69609133D01*
X154900877Y-69609133D02*
X154834211Y-69642466D01*
X154834211Y-69642466D02*
X154800877Y-69675800D01*
X154800877Y-69675800D02*
X154767544Y-69742466D01*
X154767544Y-69742466D02*
X154767544Y-69842466D01*
X154767544Y-69842466D02*
X154800877Y-69909133D01*
X154800877Y-69909133D02*
X154834211Y-69942466D01*
X154834211Y-69942466D02*
X154900877Y-69975800D01*
X154900877Y-69975800D02*
X155167544Y-69975800D01*
X154500877Y-69675800D02*
X154467544Y-69642466D01*
X154467544Y-69642466D02*
X154400877Y-69609133D01*
X154400877Y-69609133D02*
X154234211Y-69609133D01*
X154234211Y-69609133D02*
X154167544Y-69642466D01*
X154167544Y-69642466D02*
X154134211Y-69675800D01*
X154134211Y-69675800D02*
X154100877Y-69742466D01*
X154100877Y-69742466D02*
X154100877Y-69809133D01*
X154100877Y-69809133D02*
X154134211Y-69909133D01*
X154134211Y-69909133D02*
X154534211Y-70309133D01*
X154534211Y-70309133D02*
X154100877Y-70309133D01*
X153500877Y-69842466D02*
X153500877Y-70309133D01*
X153667544Y-69575800D02*
X153834210Y-70075800D01*
X153834210Y-70075800D02*
X153400877Y-70075800D01*
X152800877Y-69609133D02*
X153134210Y-69609133D01*
X153134210Y-69609133D02*
X153167543Y-69942466D01*
X153167543Y-69942466D02*
X153134210Y-69909133D01*
X153134210Y-69909133D02*
X153067543Y-69875800D01*
X153067543Y-69875800D02*
X152900877Y-69875800D01*
X152900877Y-69875800D02*
X152834210Y-69909133D01*
X152834210Y-69909133D02*
X152800877Y-69942466D01*
X152800877Y-69942466D02*
X152767543Y-70009133D01*
X152767543Y-70009133D02*
X152767543Y-70175800D01*
X152767543Y-70175800D02*
X152800877Y-70242466D01*
X152800877Y-70242466D02*
X152834210Y-70275800D01*
X152834210Y-70275800D02*
X152900877Y-70309133D01*
X152900877Y-70309133D02*
X153067543Y-70309133D01*
X153067543Y-70309133D02*
X153134210Y-70275800D01*
X153134210Y-70275800D02*
X153167543Y-70242466D01*
X152334210Y-69609133D02*
X152267543Y-69609133D01*
X152267543Y-69609133D02*
X152200876Y-69642466D01*
X152200876Y-69642466D02*
X152167543Y-69675800D01*
X152167543Y-69675800D02*
X152134210Y-69742466D01*
X152134210Y-69742466D02*
X152100876Y-69875800D01*
X152100876Y-69875800D02*
X152100876Y-70042466D01*
X152100876Y-70042466D02*
X152134210Y-70175800D01*
X152134210Y-70175800D02*
X152167543Y-70242466D01*
X152167543Y-70242466D02*
X152200876Y-70275800D01*
X152200876Y-70275800D02*
X152267543Y-70309133D01*
X152267543Y-70309133D02*
X152334210Y-70309133D01*
X152334210Y-70309133D02*
X152400876Y-70275800D01*
X152400876Y-70275800D02*
X152434210Y-70242466D01*
X152434210Y-70242466D02*
X152467543Y-70175800D01*
X152467543Y-70175800D02*
X152500876Y-70042466D01*
X152500876Y-70042466D02*
X152500876Y-69875800D01*
X152500876Y-69875800D02*
X152467543Y-69742466D01*
X152467543Y-69742466D02*
X152434210Y-69675800D01*
X152434210Y-69675800D02*
X152400876Y-69642466D01*
X152400876Y-69642466D02*
X152334210Y-69609133D01*
X164005639Y-98236323D02*
X163948496Y-98255371D01*
X163948496Y-98255371D02*
X163929449Y-98274419D01*
X163929449Y-98274419D02*
X163910401Y-98312514D01*
X163910401Y-98312514D02*
X163910401Y-98369657D01*
X163910401Y-98369657D02*
X163929449Y-98407752D01*
X163929449Y-98407752D02*
X163948496Y-98426800D01*
X163948496Y-98426800D02*
X163986591Y-98445847D01*
X163986591Y-98445847D02*
X164138972Y-98445847D01*
X164138972Y-98445847D02*
X164138972Y-98045847D01*
X164138972Y-98045847D02*
X164005639Y-98045847D01*
X164005639Y-98045847D02*
X163967544Y-98064895D01*
X163967544Y-98064895D02*
X163948496Y-98083942D01*
X163948496Y-98083942D02*
X163929449Y-98122038D01*
X163929449Y-98122038D02*
X163929449Y-98160133D01*
X163929449Y-98160133D02*
X163948496Y-98198228D01*
X163948496Y-98198228D02*
X163967544Y-98217276D01*
X163967544Y-98217276D02*
X164005639Y-98236323D01*
X164005639Y-98236323D02*
X164138972Y-98236323D01*
X163758020Y-98331561D02*
X163567544Y-98331561D01*
X163796115Y-98445847D02*
X163662782Y-98045847D01*
X163662782Y-98045847D02*
X163529449Y-98445847D01*
X163453258Y-98045847D02*
X163224687Y-98045847D01*
X163338973Y-98445847D02*
X163338973Y-98045847D01*
X163091353Y-98293466D02*
X162786592Y-98293466D01*
X162938972Y-98445847D02*
X162938972Y-98141085D01*
X165605639Y-68136323D02*
X165548496Y-68155371D01*
X165548496Y-68155371D02*
X165529449Y-68174419D01*
X165529449Y-68174419D02*
X165510401Y-68212514D01*
X165510401Y-68212514D02*
X165510401Y-68269657D01*
X165510401Y-68269657D02*
X165529449Y-68307752D01*
X165529449Y-68307752D02*
X165548496Y-68326800D01*
X165548496Y-68326800D02*
X165586591Y-68345847D01*
X165586591Y-68345847D02*
X165738972Y-68345847D01*
X165738972Y-68345847D02*
X165738972Y-67945847D01*
X165738972Y-67945847D02*
X165605639Y-67945847D01*
X165605639Y-67945847D02*
X165567544Y-67964895D01*
X165567544Y-67964895D02*
X165548496Y-67983942D01*
X165548496Y-67983942D02*
X165529449Y-68022038D01*
X165529449Y-68022038D02*
X165529449Y-68060133D01*
X165529449Y-68060133D02*
X165548496Y-68098228D01*
X165548496Y-68098228D02*
X165567544Y-68117276D01*
X165567544Y-68117276D02*
X165605639Y-68136323D01*
X165605639Y-68136323D02*
X165738972Y-68136323D01*
X165358020Y-68231561D02*
X165167544Y-68231561D01*
X165396115Y-68345847D02*
X165262782Y-67945847D01*
X165262782Y-67945847D02*
X165129449Y-68345847D01*
X165053258Y-67945847D02*
X164824687Y-67945847D01*
X164938973Y-68345847D02*
X164938973Y-67945847D01*
X164691353Y-68193466D02*
X164386592Y-68193466D01*
X158334211Y-68609133D02*
X158667544Y-68609133D01*
X158667544Y-68609133D02*
X158667544Y-67909133D01*
X158100877Y-68609133D02*
X158100877Y-67909133D01*
X157367544Y-68609133D02*
X157600877Y-68275800D01*
X157767544Y-68609133D02*
X157767544Y-67909133D01*
X157767544Y-67909133D02*
X157500877Y-67909133D01*
X157500877Y-67909133D02*
X157434211Y-67942466D01*
X157434211Y-67942466D02*
X157400877Y-67975800D01*
X157400877Y-67975800D02*
X157367544Y-68042466D01*
X157367544Y-68042466D02*
X157367544Y-68142466D01*
X157367544Y-68142466D02*
X157400877Y-68209133D01*
X157400877Y-68209133D02*
X157434211Y-68242466D01*
X157434211Y-68242466D02*
X157500877Y-68275800D01*
X157500877Y-68275800D02*
X157767544Y-68275800D01*
X157100877Y-67975800D02*
X157067544Y-67942466D01*
X157067544Y-67942466D02*
X157000877Y-67909133D01*
X157000877Y-67909133D02*
X156834211Y-67909133D01*
X156834211Y-67909133D02*
X156767544Y-67942466D01*
X156767544Y-67942466D02*
X156734211Y-67975800D01*
X156734211Y-67975800D02*
X156700877Y-68042466D01*
X156700877Y-68042466D02*
X156700877Y-68109133D01*
X156700877Y-68109133D02*
X156734211Y-68209133D01*
X156734211Y-68209133D02*
X157134211Y-68609133D01*
X157134211Y-68609133D02*
X156700877Y-68609133D01*
X156267544Y-67909133D02*
X156200877Y-67909133D01*
X156200877Y-67909133D02*
X156134210Y-67942466D01*
X156134210Y-67942466D02*
X156100877Y-67975800D01*
X156100877Y-67975800D02*
X156067544Y-68042466D01*
X156067544Y-68042466D02*
X156034210Y-68175800D01*
X156034210Y-68175800D02*
X156034210Y-68342466D01*
X156034210Y-68342466D02*
X156067544Y-68475800D01*
X156067544Y-68475800D02*
X156100877Y-68542466D01*
X156100877Y-68542466D02*
X156134210Y-68575800D01*
X156134210Y-68575800D02*
X156200877Y-68609133D01*
X156200877Y-68609133D02*
X156267544Y-68609133D01*
X156267544Y-68609133D02*
X156334210Y-68575800D01*
X156334210Y-68575800D02*
X156367544Y-68542466D01*
X156367544Y-68542466D02*
X156400877Y-68475800D01*
X156400877Y-68475800D02*
X156434210Y-68342466D01*
X156434210Y-68342466D02*
X156434210Y-68175800D01*
X156434210Y-68175800D02*
X156400877Y-68042466D01*
X156400877Y-68042466D02*
X156367544Y-67975800D01*
X156367544Y-67975800D02*
X156334210Y-67942466D01*
X156334210Y-67942466D02*
X156267544Y-67909133D01*
X155800877Y-67909133D02*
X155367543Y-67909133D01*
X155367543Y-67909133D02*
X155600877Y-68175800D01*
X155600877Y-68175800D02*
X155500877Y-68175800D01*
X155500877Y-68175800D02*
X155434210Y-68209133D01*
X155434210Y-68209133D02*
X155400877Y-68242466D01*
X155400877Y-68242466D02*
X155367543Y-68309133D01*
X155367543Y-68309133D02*
X155367543Y-68475800D01*
X155367543Y-68475800D02*
X155400877Y-68542466D01*
X155400877Y-68542466D02*
X155434210Y-68575800D01*
X155434210Y-68575800D02*
X155500877Y-68609133D01*
X155500877Y-68609133D02*
X155700877Y-68609133D01*
X155700877Y-68609133D02*
X155767543Y-68575800D01*
X155767543Y-68575800D02*
X155800877Y-68542466D01*
X155100876Y-67975800D02*
X155067543Y-67942466D01*
X155067543Y-67942466D02*
X155000876Y-67909133D01*
X155000876Y-67909133D02*
X154834210Y-67909133D01*
X154834210Y-67909133D02*
X154767543Y-67942466D01*
X154767543Y-67942466D02*
X154734210Y-67975800D01*
X154734210Y-67975800D02*
X154700876Y-68042466D01*
X154700876Y-68042466D02*
X154700876Y-68109133D01*
X154700876Y-68109133D02*
X154734210Y-68209133D01*
X154734210Y-68209133D02*
X155134210Y-68609133D01*
X155134210Y-68609133D02*
X154700876Y-68609133D01*
X164005639Y-91236323D02*
X163948496Y-91255371D01*
X163948496Y-91255371D02*
X163929449Y-91274419D01*
X163929449Y-91274419D02*
X163910401Y-91312514D01*
X163910401Y-91312514D02*
X163910401Y-91369657D01*
X163910401Y-91369657D02*
X163929449Y-91407752D01*
X163929449Y-91407752D02*
X163948496Y-91426800D01*
X163948496Y-91426800D02*
X163986591Y-91445847D01*
X163986591Y-91445847D02*
X164138972Y-91445847D01*
X164138972Y-91445847D02*
X164138972Y-91045847D01*
X164138972Y-91045847D02*
X164005639Y-91045847D01*
X164005639Y-91045847D02*
X163967544Y-91064895D01*
X163967544Y-91064895D02*
X163948496Y-91083942D01*
X163948496Y-91083942D02*
X163929449Y-91122038D01*
X163929449Y-91122038D02*
X163929449Y-91160133D01*
X163929449Y-91160133D02*
X163948496Y-91198228D01*
X163948496Y-91198228D02*
X163967544Y-91217276D01*
X163967544Y-91217276D02*
X164005639Y-91236323D01*
X164005639Y-91236323D02*
X164138972Y-91236323D01*
X163758020Y-91331561D02*
X163567544Y-91331561D01*
X163796115Y-91445847D02*
X163662782Y-91045847D01*
X163662782Y-91045847D02*
X163529449Y-91445847D01*
X163453258Y-91045847D02*
X163224687Y-91045847D01*
X163338973Y-91445847D02*
X163338973Y-91045847D01*
X163091353Y-91293466D02*
X162786592Y-91293466D01*
X162938972Y-91445847D02*
X162938972Y-91141085D01*
X158205639Y-81136323D02*
X158148496Y-81155371D01*
X158148496Y-81155371D02*
X158129449Y-81174419D01*
X158129449Y-81174419D02*
X158110401Y-81212514D01*
X158110401Y-81212514D02*
X158110401Y-81269657D01*
X158110401Y-81269657D02*
X158129449Y-81307752D01*
X158129449Y-81307752D02*
X158148496Y-81326800D01*
X158148496Y-81326800D02*
X158186591Y-81345847D01*
X158186591Y-81345847D02*
X158338972Y-81345847D01*
X158338972Y-81345847D02*
X158338972Y-80945847D01*
X158338972Y-80945847D02*
X158205639Y-80945847D01*
X158205639Y-80945847D02*
X158167544Y-80964895D01*
X158167544Y-80964895D02*
X158148496Y-80983942D01*
X158148496Y-80983942D02*
X158129449Y-81022038D01*
X158129449Y-81022038D02*
X158129449Y-81060133D01*
X158129449Y-81060133D02*
X158148496Y-81098228D01*
X158148496Y-81098228D02*
X158167544Y-81117276D01*
X158167544Y-81117276D02*
X158205639Y-81136323D01*
X158205639Y-81136323D02*
X158338972Y-81136323D01*
X157958020Y-81231561D02*
X157767544Y-81231561D01*
X157996115Y-81345847D02*
X157862782Y-80945847D01*
X157862782Y-80945847D02*
X157729449Y-81345847D01*
X157653258Y-80945847D02*
X157424687Y-80945847D01*
X157538973Y-81345847D02*
X157538973Y-80945847D01*
X157291353Y-81193466D02*
X156986592Y-81193466D01*
X157138972Y-81345847D02*
X157138972Y-81041085D01*
X161005639Y-84736323D02*
X160948496Y-84755371D01*
X160948496Y-84755371D02*
X160929449Y-84774419D01*
X160929449Y-84774419D02*
X160910401Y-84812514D01*
X160910401Y-84812514D02*
X160910401Y-84869657D01*
X160910401Y-84869657D02*
X160929449Y-84907752D01*
X160929449Y-84907752D02*
X160948496Y-84926800D01*
X160948496Y-84926800D02*
X160986591Y-84945847D01*
X160986591Y-84945847D02*
X161138972Y-84945847D01*
X161138972Y-84945847D02*
X161138972Y-84545847D01*
X161138972Y-84545847D02*
X161005639Y-84545847D01*
X161005639Y-84545847D02*
X160967544Y-84564895D01*
X160967544Y-84564895D02*
X160948496Y-84583942D01*
X160948496Y-84583942D02*
X160929449Y-84622038D01*
X160929449Y-84622038D02*
X160929449Y-84660133D01*
X160929449Y-84660133D02*
X160948496Y-84698228D01*
X160948496Y-84698228D02*
X160967544Y-84717276D01*
X160967544Y-84717276D02*
X161005639Y-84736323D01*
X161005639Y-84736323D02*
X161138972Y-84736323D01*
X160758020Y-84831561D02*
X160567544Y-84831561D01*
X160796115Y-84945847D02*
X160662782Y-84545847D01*
X160662782Y-84545847D02*
X160529449Y-84945847D01*
X160453258Y-84545847D02*
X160224687Y-84545847D01*
X160338973Y-84945847D02*
X160338973Y-84545847D01*
X160091353Y-84793466D02*
X159786592Y-84793466D01*
X159938972Y-84945847D02*
X159938972Y-84641085D01*
X164405639Y-84636323D02*
X164348496Y-84655371D01*
X164348496Y-84655371D02*
X164329449Y-84674419D01*
X164329449Y-84674419D02*
X164310401Y-84712514D01*
X164310401Y-84712514D02*
X164310401Y-84769657D01*
X164310401Y-84769657D02*
X164329449Y-84807752D01*
X164329449Y-84807752D02*
X164348496Y-84826800D01*
X164348496Y-84826800D02*
X164386591Y-84845847D01*
X164386591Y-84845847D02*
X164538972Y-84845847D01*
X164538972Y-84845847D02*
X164538972Y-84445847D01*
X164538972Y-84445847D02*
X164405639Y-84445847D01*
X164405639Y-84445847D02*
X164367544Y-84464895D01*
X164367544Y-84464895D02*
X164348496Y-84483942D01*
X164348496Y-84483942D02*
X164329449Y-84522038D01*
X164329449Y-84522038D02*
X164329449Y-84560133D01*
X164329449Y-84560133D02*
X164348496Y-84598228D01*
X164348496Y-84598228D02*
X164367544Y-84617276D01*
X164367544Y-84617276D02*
X164405639Y-84636323D01*
X164405639Y-84636323D02*
X164538972Y-84636323D01*
X164158020Y-84731561D02*
X163967544Y-84731561D01*
X164196115Y-84845847D02*
X164062782Y-84445847D01*
X164062782Y-84445847D02*
X163929449Y-84845847D01*
X163853258Y-84445847D02*
X163624687Y-84445847D01*
X163738973Y-84845847D02*
X163738973Y-84445847D01*
X163491353Y-84693466D02*
X163186592Y-84693466D01*
D11*
X168727975Y-102240295D02*
X168727975Y-101440295D01*
X168727975Y-101440295D02*
X168537499Y-101440295D01*
X168537499Y-101440295D02*
X168423213Y-101478390D01*
X168423213Y-101478390D02*
X168347023Y-101554580D01*
X168347023Y-101554580D02*
X168308928Y-101630771D01*
X168308928Y-101630771D02*
X168270832Y-101783152D01*
X168270832Y-101783152D02*
X168270832Y-101897438D01*
X168270832Y-101897438D02*
X168308928Y-102049819D01*
X168308928Y-102049819D02*
X168347023Y-102126009D01*
X168347023Y-102126009D02*
X168423213Y-102202200D01*
X168423213Y-102202200D02*
X168537499Y-102240295D01*
X168537499Y-102240295D02*
X168727975Y-102240295D01*
X167508928Y-102240295D02*
X167966071Y-102240295D01*
X167737499Y-102240295D02*
X167737499Y-101440295D01*
X167737499Y-101440295D02*
X167813690Y-101554580D01*
X167813690Y-101554580D02*
X167889880Y-101630771D01*
X167889880Y-101630771D02*
X167966071Y-101668866D01*
D10*
X158196115Y-94145847D02*
X158062782Y-94545847D01*
X158062782Y-94545847D02*
X157929449Y-94145847D01*
X157567544Y-94507752D02*
X157586592Y-94526800D01*
X157586592Y-94526800D02*
X157643734Y-94545847D01*
X157643734Y-94545847D02*
X157681830Y-94545847D01*
X157681830Y-94545847D02*
X157738973Y-94526800D01*
X157738973Y-94526800D02*
X157777068Y-94488704D01*
X157777068Y-94488704D02*
X157796115Y-94450609D01*
X157796115Y-94450609D02*
X157815163Y-94374419D01*
X157815163Y-94374419D02*
X157815163Y-94317276D01*
X157815163Y-94317276D02*
X157796115Y-94241085D01*
X157796115Y-94241085D02*
X157777068Y-94202990D01*
X157777068Y-94202990D02*
X157738973Y-94164895D01*
X157738973Y-94164895D02*
X157681830Y-94145847D01*
X157681830Y-94145847D02*
X157643734Y-94145847D01*
X157643734Y-94145847D02*
X157586592Y-94164895D01*
X157586592Y-94164895D02*
X157567544Y-94183942D01*
X157167544Y-94507752D02*
X157186592Y-94526800D01*
X157186592Y-94526800D02*
X157243734Y-94545847D01*
X157243734Y-94545847D02*
X157281830Y-94545847D01*
X157281830Y-94545847D02*
X157338973Y-94526800D01*
X157338973Y-94526800D02*
X157377068Y-94488704D01*
X157377068Y-94488704D02*
X157396115Y-94450609D01*
X157396115Y-94450609D02*
X157415163Y-94374419D01*
X157415163Y-94374419D02*
X157415163Y-94317276D01*
X157415163Y-94317276D02*
X157396115Y-94241085D01*
X157396115Y-94241085D02*
X157377068Y-94202990D01*
X157377068Y-94202990D02*
X157338973Y-94164895D01*
X157338973Y-94164895D02*
X157281830Y-94145847D01*
X157281830Y-94145847D02*
X157243734Y-94145847D01*
X157243734Y-94145847D02*
X157186592Y-94164895D01*
X157186592Y-94164895D02*
X157167544Y-94183942D01*
X159929449Y-94164895D02*
X159967544Y-94145847D01*
X159967544Y-94145847D02*
X160024687Y-94145847D01*
X160024687Y-94145847D02*
X160081830Y-94164895D01*
X160081830Y-94164895D02*
X160119925Y-94202990D01*
X160119925Y-94202990D02*
X160138972Y-94241085D01*
X160138972Y-94241085D02*
X160158020Y-94317276D01*
X160158020Y-94317276D02*
X160158020Y-94374419D01*
X160158020Y-94374419D02*
X160138972Y-94450609D01*
X160138972Y-94450609D02*
X160119925Y-94488704D01*
X160119925Y-94488704D02*
X160081830Y-94526800D01*
X160081830Y-94526800D02*
X160024687Y-94545847D01*
X160024687Y-94545847D02*
X159986591Y-94545847D01*
X159986591Y-94545847D02*
X159929449Y-94526800D01*
X159929449Y-94526800D02*
X159910401Y-94507752D01*
X159910401Y-94507752D02*
X159910401Y-94374419D01*
X159910401Y-94374419D02*
X159986591Y-94374419D01*
X159738972Y-94545847D02*
X159738972Y-94145847D01*
X159738972Y-94145847D02*
X159510401Y-94545847D01*
X159510401Y-94545847D02*
X159510401Y-94145847D01*
X159319924Y-94545847D02*
X159319924Y-94145847D01*
X159319924Y-94145847D02*
X159224686Y-94145847D01*
X159224686Y-94145847D02*
X159167543Y-94164895D01*
X159167543Y-94164895D02*
X159129448Y-94202990D01*
X159129448Y-94202990D02*
X159110401Y-94241085D01*
X159110401Y-94241085D02*
X159091353Y-94317276D01*
X159091353Y-94317276D02*
X159091353Y-94374419D01*
X159091353Y-94374419D02*
X159110401Y-94450609D01*
X159110401Y-94450609D02*
X159129448Y-94488704D01*
X159129448Y-94488704D02*
X159167543Y-94526800D01*
X159167543Y-94526800D02*
X159224686Y-94545847D01*
X159224686Y-94545847D02*
X159319924Y-94545847D01*
X154158020Y-94526800D02*
X154100877Y-94545847D01*
X154100877Y-94545847D02*
X154005639Y-94545847D01*
X154005639Y-94545847D02*
X153967544Y-94526800D01*
X153967544Y-94526800D02*
X153948496Y-94507752D01*
X153948496Y-94507752D02*
X153929449Y-94469657D01*
X153929449Y-94469657D02*
X153929449Y-94431561D01*
X153929449Y-94431561D02*
X153948496Y-94393466D01*
X153948496Y-94393466D02*
X153967544Y-94374419D01*
X153967544Y-94374419D02*
X154005639Y-94355371D01*
X154005639Y-94355371D02*
X154081830Y-94336323D01*
X154081830Y-94336323D02*
X154119925Y-94317276D01*
X154119925Y-94317276D02*
X154138972Y-94298228D01*
X154138972Y-94298228D02*
X154158020Y-94260133D01*
X154158020Y-94260133D02*
X154158020Y-94222038D01*
X154158020Y-94222038D02*
X154138972Y-94183942D01*
X154138972Y-94183942D02*
X154119925Y-94164895D01*
X154119925Y-94164895D02*
X154081830Y-94145847D01*
X154081830Y-94145847D02*
X153986591Y-94145847D01*
X153986591Y-94145847D02*
X153929449Y-94164895D01*
X153529449Y-94507752D02*
X153548497Y-94526800D01*
X153548497Y-94526800D02*
X153605639Y-94545847D01*
X153605639Y-94545847D02*
X153643735Y-94545847D01*
X153643735Y-94545847D02*
X153700878Y-94526800D01*
X153700878Y-94526800D02*
X153738973Y-94488704D01*
X153738973Y-94488704D02*
X153758020Y-94450609D01*
X153758020Y-94450609D02*
X153777068Y-94374419D01*
X153777068Y-94374419D02*
X153777068Y-94317276D01*
X153777068Y-94317276D02*
X153758020Y-94241085D01*
X153758020Y-94241085D02*
X153738973Y-94202990D01*
X153738973Y-94202990D02*
X153700878Y-94164895D01*
X153700878Y-94164895D02*
X153643735Y-94145847D01*
X153643735Y-94145847D02*
X153605639Y-94145847D01*
X153605639Y-94145847D02*
X153548497Y-94164895D01*
X153548497Y-94164895D02*
X153529449Y-94183942D01*
X153167544Y-94545847D02*
X153358020Y-94545847D01*
X153358020Y-94545847D02*
X153358020Y-94145847D01*
X156158020Y-94526800D02*
X156100877Y-94545847D01*
X156100877Y-94545847D02*
X156005639Y-94545847D01*
X156005639Y-94545847D02*
X155967544Y-94526800D01*
X155967544Y-94526800D02*
X155948496Y-94507752D01*
X155948496Y-94507752D02*
X155929449Y-94469657D01*
X155929449Y-94469657D02*
X155929449Y-94431561D01*
X155929449Y-94431561D02*
X155948496Y-94393466D01*
X155948496Y-94393466D02*
X155967544Y-94374419D01*
X155967544Y-94374419D02*
X156005639Y-94355371D01*
X156005639Y-94355371D02*
X156081830Y-94336323D01*
X156081830Y-94336323D02*
X156119925Y-94317276D01*
X156119925Y-94317276D02*
X156138972Y-94298228D01*
X156138972Y-94298228D02*
X156158020Y-94260133D01*
X156158020Y-94260133D02*
X156158020Y-94222038D01*
X156158020Y-94222038D02*
X156138972Y-94183942D01*
X156138972Y-94183942D02*
X156119925Y-94164895D01*
X156119925Y-94164895D02*
X156081830Y-94145847D01*
X156081830Y-94145847D02*
X155986591Y-94145847D01*
X155986591Y-94145847D02*
X155929449Y-94164895D01*
X155758020Y-94545847D02*
X155758020Y-94145847D01*
X155758020Y-94145847D02*
X155662782Y-94145847D01*
X155662782Y-94145847D02*
X155605639Y-94164895D01*
X155605639Y-94164895D02*
X155567544Y-94202990D01*
X155567544Y-94202990D02*
X155548497Y-94241085D01*
X155548497Y-94241085D02*
X155529449Y-94317276D01*
X155529449Y-94317276D02*
X155529449Y-94374419D01*
X155529449Y-94374419D02*
X155548497Y-94450609D01*
X155548497Y-94450609D02*
X155567544Y-94488704D01*
X155567544Y-94488704D02*
X155605639Y-94526800D01*
X155605639Y-94526800D02*
X155662782Y-94545847D01*
X155662782Y-94545847D02*
X155758020Y-94545847D01*
X155377068Y-94431561D02*
X155186592Y-94431561D01*
X155415163Y-94545847D02*
X155281830Y-94145847D01*
X155281830Y-94145847D02*
X155148497Y-94545847D01*
D12*
%TO.C,D1*%
X168917500Y-100900000D02*
X167357500Y-100900000D01*
X167357500Y-99300000D02*
X168917500Y-99300000D01*
D13*
X165737500Y-100100000D02*
G75*
G02*
X165537500Y-100100000I-100000J0D01*
G01*
X165537500Y-100100000D02*
G75*
G02*
X165737500Y-100100000I100000J0D01*
G01*
D10*
%TO.C,C3*%
X154800000Y-68800000D02*
X154800000Y-92900000D01*
X170500000Y-68800000D02*
X154800000Y-68800000D01*
X154800000Y-92900000D02*
X170500000Y-92900000D01*
X170500000Y-92900000D02*
X170500000Y-68800000D01*
%TO.C,C4*%
X177866380Y-84500000D02*
G75*
G02*
X146800000Y-84500000I-15533190J0D01*
G01*
X146800000Y-84500000D02*
G75*
G02*
X177866380Y-84500000I15533190J0D01*
G01*
D12*
%TO.C,J2*%
X151700000Y-91050000D02*
X161700000Y-91050000D01*
X161700000Y-91050000D02*
X161700000Y-96150000D01*
X151700000Y-96150000D02*
X151700000Y-91050000D01*
X161700000Y-96150000D02*
X151700000Y-96150000D01*
D13*
X162600000Y-93200000D02*
G75*
G02*
X162400000Y-93200000I-100000J0D01*
G01*
X162400000Y-93200000D02*
G75*
G02*
X162600000Y-93200000I100000J0D01*
G01*
%TD*%
%LPC*%
D14*
%TO.C,D1*%
X166612500Y-100100000D03*
X169662500Y-100100000D03*
%TD*%
D15*
%TO.C,C3*%
X162600000Y-92900000D03*
X162600000Y-68900000D03*
D16*
X162600000Y-68900000D03*
X162600000Y-92900000D03*
%TD*%
D17*
%TO.C,SW1*%
X157160000Y-100000000D03*
D18*
X154620000Y-100000000D03*
X159700000Y-100000000D03*
%TD*%
D16*
%TO.C,U1*%
X164414000Y-85820000D03*
X161814000Y-85820000D03*
X163824000Y-79270001D03*
X161289000Y-79270000D03*
X163834000Y-71600000D03*
X163834000Y-74180000D03*
X163834000Y-76720000D03*
X161294000Y-76720000D03*
X161294000Y-74180000D03*
X161294000Y-71600000D03*
X158064000Y-79820000D03*
X158064000Y-77920000D03*
X164664000Y-81720000D03*
D18*
X170184000Y-72600000D03*
X170184000Y-75140000D03*
X170184000Y-77680000D03*
X170184000Y-80220000D03*
X170184000Y-82760000D03*
X170184000Y-85300000D03*
X170214000Y-87840000D03*
X154934000Y-87840000D03*
X154944000Y-85300000D03*
X154944000Y-82760000D03*
X154944000Y-80220000D03*
X154944000Y-77680000D03*
X154944000Y-75140000D03*
X154944000Y-72600000D03*
%TD*%
D19*
%TO.C,C4*%
X162600000Y-99900000D03*
D15*
X162600000Y-68900000D03*
D16*
X162600000Y-68900000D03*
X162600000Y-99900000D03*
%TD*%
D20*
%TO.C,J2*%
X159700000Y-93200000D03*
D21*
X157700000Y-93200000D03*
X155700000Y-93200000D03*
X153700000Y-93200000D03*
%TD*%
D16*
%TO.C,C2*%
X10850000Y-1314999D03*
X10850000Y-21314999D03*
%TD*%
D22*
%TO.C,C1*%
X47600000Y-12050000D03*
D23*
X24110000Y-12050000D03*
%TD*%
D20*
%TO.C,J1*%
X165500000Y-93100000D03*
D21*
X167500000Y-93100000D03*
X169500000Y-93100000D03*
X171500000Y-93100000D03*
%TD*%
%LPD*%
M02*
