M48
INCH
T1C0.0118
T2C0.0157
T3C0.0315
T4C0.0394
T5C0.0433
T6C0.0472
T7C0.0591
%
G90
G05
T1
X5.9882Y-3.9685
X5.9961Y-2.7874
X5.9961Y-3.2047
X5.9961Y-3.5394
X5.9965Y-2.9075
X6.0Y-3.7598
X6.0591Y-2.7087
X6.1693Y-3.2087
X6.2598Y-3.3819
X6.2717Y-2.7087
X6.2874Y-3.7362
X6.4803Y-3.7402
X6.5039Y-2.8701
X6.5039Y-3.9724
X6.5079Y-3.0669
X6.5197Y-2.748
X6.6378Y-2.7087
X6.7165Y-3.5276
X6.8071Y-2.7087
X6.8071Y-3.7402
X6.811Y-3.5394
X6.815Y-2.9961
X6.8169Y-3.3071
X6.8173Y-3.9606
T2
X6.3425Y-3.748
X6.6417Y-3.9606
T3
X6.0512Y-3.6693
X6.0874Y-3.937
X6.1299Y-3.6693
X6.1874Y-3.937
X6.2087Y-3.6693
X6.2874Y-3.6693
X6.2874Y-3.937
X6.5157Y-3.6654
X6.5945Y-3.6654
X6.6732Y-3.6654
X6.752Y-3.6654
T4
X0.4272Y-0.0518
X0.4272Y-0.8392
X6.4016Y-2.7126
X6.4016Y-2.7126
X6.4016Y-3.6575
X6.4016Y-3.9331
T5
X6.0998Y-3.4583
X6.1002Y-2.8583
X6.1002Y-2.9583
X6.1002Y-3.0583
X6.1002Y-3.1583
X6.1002Y-3.2583
X6.1002Y-3.3583
X6.35Y-3.1209
X6.3502Y-2.8189
X6.3502Y-2.9205
X6.3502Y-3.0205
X6.3706Y-3.3787
X6.4498Y-3.1209
X6.4502Y-2.8189
X6.4502Y-2.9205
X6.4502Y-3.0205
X6.473Y-3.3787
X6.7002Y-2.8583
X6.7002Y-2.9583
X6.7002Y-3.0583
X6.7002Y-3.1583
X6.7002Y-3.2583
X6.7002Y-3.3583
X6.7013Y-3.4583
T6
X6.223Y-3.0677
X6.223Y-3.1425
X6.4828Y-3.2173
T7
X0.9492Y-0.4744
X1.874Y-0.4744
M30
