%TF.GenerationSoftware,KiCad,Pcbnew,8.0.4*%
%TF.CreationDate,2024-10-12T11:12:09+09:00*%
%TF.ProjectId,XIAO_ButtonBatteryPCB,5849414f-5f42-4757-9474-6f6e42617474,rev?*%
%TF.SameCoordinates,Original*%
%TF.FileFunction,Soldermask,Bot*%
%TF.FilePolarity,Negative*%
%FSLAX46Y46*%
G04 Gerber Fmt 4.6, Leading zero omitted, Abs format (unit mm)*
G04 Created by KiCad (PCBNEW 8.0.4) date 2024-10-12 11:12:09*
%MOMM*%
%LPD*%
G01*
G04 APERTURE LIST*
G04 Aperture macros list*
%AMRoundRect*
0 Rectangle with rounded corners*
0 $1 Rounding radius*
0 $2 $3 $4 $5 $6 $7 $8 $9 X,Y pos of 4 corners*
0 Add a 4 corners polygon primitive as box body*
4,1,4,$2,$3,$4,$5,$6,$7,$8,$9,$2,$3,0*
0 Add four circle primitives for the rounded corners*
1,1,$1+$1,$2,$3*
1,1,$1+$1,$4,$5*
1,1,$1+$1,$6,$7*
1,1,$1+$1,$8,$9*
0 Add four rect primitives between the rounded corners*
20,1,$1+$1,$2,$3,$4,$5,0*
20,1,$1+$1,$4,$5,$6,$7,0*
20,1,$1+$1,$6,$7,$8,$9,0*
20,1,$1+$1,$8,$9,$2,$3,0*%
G04 Aperture macros list end*
%ADD10R,0.850000X1.200000*%
%ADD11RoundRect,0.625000X1.125000X-0.625000X1.125000X0.625000X-1.125000X0.625000X-1.125000X-0.625000X0*%
%ADD12C,1.500000*%
%ADD13R,1.500000X1.500000*%
%ADD14C,1.600000*%
%ADD15RoundRect,0.625000X-1.125000X0.625000X-1.125000X-0.625000X1.125000X-0.625000X1.125000X0.625000X0*%
%ADD16R,1.308000X1.308000*%
%ADD17C,1.308000*%
%ADD18C,3.000000*%
%ADD19R,3.000000X3.000000*%
G04 APERTURE END LIST*
D10*
%TO.C,D1*%
X166612500Y-100100000D03*
X169662500Y-100100000D03*
%TD*%
D11*
%TO.C,C3*%
X162600000Y-92900000D03*
X162600000Y-68900000D03*
D12*
X162600000Y-68900000D03*
X162600000Y-92900000D03*
%TD*%
D13*
%TO.C,SW1*%
X157160000Y-100000000D03*
D14*
X154620000Y-100000000D03*
X159700000Y-100000000D03*
%TD*%
D12*
%TO.C,U1*%
X164414000Y-85820000D03*
X161814000Y-85820000D03*
X163824000Y-79270001D03*
X161289000Y-79270000D03*
X163834000Y-71600000D03*
X163834000Y-74180000D03*
X163834000Y-76720000D03*
X161294000Y-76720000D03*
X161294000Y-74180000D03*
X161294000Y-71600000D03*
X158064000Y-79820000D03*
X158064000Y-77920000D03*
X164664000Y-81720000D03*
D14*
X170184000Y-72600000D03*
X170184000Y-75140000D03*
X170184000Y-77680000D03*
X170184000Y-80220000D03*
X170184000Y-82760000D03*
X170184000Y-85300000D03*
X170214000Y-87840000D03*
X154934000Y-87840000D03*
X154944000Y-85300000D03*
X154944000Y-82760000D03*
X154944000Y-80220000D03*
X154944000Y-77680000D03*
X154944000Y-75140000D03*
X154944000Y-72600000D03*
%TD*%
D15*
%TO.C,C4*%
X162600000Y-99900000D03*
D11*
X162600000Y-68900000D03*
D12*
X162600000Y-68900000D03*
X162600000Y-99900000D03*
%TD*%
D16*
%TO.C,J2*%
X159700000Y-93200000D03*
D17*
X157700000Y-93200000D03*
X155700000Y-93200000D03*
X153700000Y-93200000D03*
%TD*%
D12*
%TO.C,C2*%
X10850000Y-1314999D03*
X10850000Y-21314999D03*
%TD*%
D18*
%TO.C,C1*%
X47600000Y-12050000D03*
D19*
X24110000Y-12050000D03*
%TD*%
D16*
%TO.C,J1*%
X165500000Y-93100000D03*
D17*
X167500000Y-93100000D03*
X169500000Y-93100000D03*
X171500000Y-93100000D03*
%TD*%
M02*
